<svg xmlns="http://www.w3.org/2000/svg" width="960" height="540" viewBox="0 0 960 540" role="img">
  <defs>
    <pattern id="grain" width="13.0" height="13.0" patternUnits="userSpaceOnUse">
    <circle cx="3.2" cy="3.2" r="1.6" fill="#b97d1c" opacity="0.45"/>
  </pattern>
  </defs>
  <rect width="960" height="540" fill="#f7f3ea"/>
  <rect width="960" height="540" fill="url(#grain)"/>
  
    <path d="M80,440 L880,440" fill="none" stroke="#16130d" stroke-width="3.02" stroke-linecap="round" stroke-linejoin="round" opacity="0.5"/>
    <text x="80.0" y="470.0" text-anchor="start" font-family="'Public Sans', system-ui, sans-serif" font-size="15" font-weight="500" fill="#16130d" opacity="0.6">0 min</text>
    <text x="880.0" y="470.0" text-anchor="end" font-family="'Public Sans', system-ui, sans-serif" font-size="15" font-weight="500" fill="#16130d" opacity="0.6">40 min</text>

    <rect x="80.0" y="150.0" width="420.0" height="130.0" fill="#b97d1c" opacity="0.16"/>

    <path d="M80,150 Q260,340 500,150" fill="none" stroke="#16130d" stroke-width="4.16" stroke-linecap="round" stroke-linejoin="round" opacity="0.8"/>
    <text x="80.0" y="134.0" text-anchor="start" font-family="'Public Sans', system-ui, sans-serif" font-size="16" font-weight="500" fill="#16130d" opacity="0.75">awake</text>
    <text x="275.0" y="269.0" text-anchor="middle" font-family="'Public Sans', system-ui, sans-serif" font-size="16" font-weight="500" fill="#16130d" opacity="0.75">light sleep</text>
    <text x="275.0" y="306.0" text-anchor="middle" font-family="'Public Sans', system-ui, sans-serif" font-size="18" font-weight="600" fill="#16130d" opacity="0.85">short nap</text>

    <path d="M80,440 C300,430 380,260 500,150 C620,70 720,55 880,50" fill="none" stroke="#b97d1c" stroke-width="7.56" stroke-linecap="round" stroke-linejoin="round" transform="translate(6.80, 8.32)"/><path d="M80,440 C300,430 380,260 500,150 C620,70 720,55 880,50" fill="none" stroke="#16130d" stroke-width="7.56" stroke-linecap="round" stroke-linejoin="round"/>
    <text x="880.0" y="30.0" text-anchor="end" font-family="'Public Sans', system-ui, sans-serif" font-size="18" font-weight="600" fill="#16130d" opacity="1">caffeine concentration</text>

    <circle cx="500.0" cy="150.0" r="8.3" fill="#f7f3ea" stroke="#16130d" stroke-width="3.40"/>
    <text x="482.0" y="128.0" text-anchor="end" font-family="'Public Sans', system-ui, sans-serif" font-size="17" font-weight="700" fill="#16130d" opacity="1">20–30 min</text>
    <text x="482.0" y="148.0" text-anchor="end" font-family="'Public Sans', system-ui, sans-serif" font-size="15" font-weight="500" fill="#16130d" opacity="0.8">drink first, then sleep</text>
  
</svg>